<svg width="153" height="38" fill="none" xmlns="http://www.w3.org/2000/svg"><g clip-path="url(#clip0_22724_6981)"><path d="M38 19.116C38 8.56 29.493 0 19 0S0 8.559 0 19.116C0 28.657 6.948 36.566 16.031 38V24.642h-4.824v-5.526h4.824v-4.211c0-4.791 2.837-7.438 7.177-7.438 2.079 0 4.253.374 4.253.374v4.704h-2.396c-2.36 0-3.096 1.473-3.096 2.985v3.586h5.27l-.843 5.526h-4.427V38C31.052 36.566 38 28.657 38 19.116z" fill="#24A3FF"/></g><path d="M53.064 17.144c-.872 0-1.66-.188-2.364-.564a4.255 4.255 0 01-1.644-1.548c-.392-.664-.588-1.408-.588-2.232 0-.824.196-1.564.588-2.22.4-.664.948-1.184 1.644-1.56.704-.376 1.492-.564 2.364-.564.872 0 1.656.188 2.352.564a4.226 4.226 0 011.644 1.56c.4.656.6 1.396.6 2.22 0 .824-.2 1.568-.6 2.232a4.255 4.255 0 01-1.644 1.548c-.696.376-1.48.564-2.352.564zm0-1.656c.496 0 .944-.112 1.344-.336.4-.232.712-.552.936-.96.232-.408.348-.872.348-1.392 0-.52-.116-.984-.348-1.392a2.372 2.372 0 00-.936-.948 2.63 2.63 0 00-1.344-.348 2.63 2.63 0 00-1.344.348c-.4.224-.716.54-.948.948a2.844 2.844 0 00-.336 1.392c0 .52.112.984.336 1.392.232.408.548.728.948.96.4.224.848.336 1.344.336zm10.789 1.656c-1.2 0-2.136-.332-2.808-.996-.664-.664-.996-1.612-.996-2.844V8.6h1.944v4.632c0 1.504.624 2.256 1.872 2.256.608 0 1.072-.18 1.392-.54.32-.368.48-.94.48-1.716V8.6h1.92v4.704c0 1.232-.336 2.18-1.008 2.844-.664.664-1.596.996-2.796.996zM75.93 17l-1.62-2.34h-1.788V17h-1.944V8.6h3.636c.744 0 1.388.124 1.932.372.552.248.976.6 1.272 1.056.296.456.444.996.444 1.62 0 .624-.152 1.164-.456 1.62-.296.448-.72.792-1.272 1.032l1.884 2.7H75.93zm-.036-5.352c0-.472-.152-.832-.456-1.08-.304-.256-.748-.384-1.332-.384h-1.584v2.928h1.584c.584 0 1.028-.128 1.332-.384.304-.256.456-.616.456-1.08zM88.437 8.6c.744 0 1.388.124 1.932.372.552.248.976.6 1.272 1.056.296.456.444.996.444 1.62 0 .616-.148 1.156-.444 1.62-.296.456-.72.808-1.272 1.056-.544.24-1.188.36-1.932.36h-1.692V17H84.8V8.6h3.636zm-.108 4.5c.584 0 1.028-.124 1.332-.372.304-.256.456-.616.456-1.08 0-.472-.152-.832-.456-1.08-.304-.256-.748-.384-1.332-.384h-1.584V13.1h1.584zm11.254 2.1h-3.9l-.744 1.8h-1.992l3.744-8.4h1.92l3.756 8.4h-2.04l-.744-1.8zm-.612-1.476l-1.332-3.216-1.332 3.216h2.664zm10.826-1.056h1.776v3.408a5.074 5.074 0 01-1.584.792 6.15 6.15 0 01-1.812.276c-.872 0-1.656-.184-2.352-.552a4.255 4.255 0 01-1.644-1.548c-.392-.664-.588-1.412-.588-2.244 0-.832.196-1.576.588-2.232a4.12 4.12 0 011.656-1.548c.704-.376 1.496-.564 2.376-.564.736 0 1.404.124 2.004.372a3.97 3.97 0 011.512 1.08l-1.248 1.152c-.6-.632-1.324-.948-2.172-.948-.536 0-1.012.112-1.428.336a2.41 2.41 0 00-.972.948c-.232.408-.348.876-.348 1.404 0 .52.116.984.348 1.392.232.408.552.728.96.96.416.224.888.336 1.416.336.56 0 1.064-.12 1.512-.36v-2.46zm11.086 2.772V17h-6.504V8.6h6.348v1.56h-4.416v1.824h3.9v1.512h-3.9v1.944h4.572zM53.064 33.144c-.872 0-1.66-.188-2.364-.564a4.255 4.255 0 01-1.644-1.548c-.392-.664-.588-1.408-.588-2.232 0-.824.196-1.564.588-2.22.4-.664.948-1.184 1.644-1.56.704-.376 1.492-.564 2.364-.564.872 0 1.656.188 2.352.564a4.226 4.226 0 011.644 1.56c.4.656.6 1.396.6 2.22 0 .824-.2 1.568-.6 2.232a4.255 4.255 0 01-1.644 1.548c-.696.376-1.48.564-2.352.564zm0-1.656c.496 0 .944-.112 1.344-.336.4-.232.712-.552.936-.96.232-.408.348-.872.348-1.392 0-.52-.116-.984-.348-1.392a2.372 2.372 0 00-.936-.948 2.63 2.63 0 00-1.344-.348 2.63 2.63 0 00-1.344.348c-.4.224-.716.54-.948.948a2.844 2.844 0 00-.336 1.392c0 .52.112.984.336 1.392.232.408.548.728.948.96.4.224.848.336 1.344.336zM67.825 24.6V33h-1.596l-4.188-5.1V33h-1.92v-8.4h1.608l4.176 5.1v-5.1h1.92zm9.33 1.56v2.22h3.888v1.56h-3.888V33H75.21v-8.4h6.348v1.56h-4.404zm11.9 5.04h-3.9l-.744 1.8H82.42l3.744-8.4h1.92L91.84 33H89.8l-.744-1.8zm-.612-1.476l-1.332-3.216-1.332 3.216h2.664zm9.17 3.42c-.855 0-1.631-.184-2.327-.552a4.277 4.277 0 01-1.632-1.548c-.392-.664-.588-1.412-.588-2.244 0-.832.196-1.576.588-2.232.4-.664.944-1.18 1.632-1.548.696-.376 1.476-.564 2.34-.564.728 0 1.384.128 1.968.384a3.942 3.942 0 011.488 1.104l-1.248 1.152c-.568-.656-1.272-.984-2.112-.984-.52 0-.984.116-1.392.348-.408.224-.728.54-.96.948a2.844 2.844 0 00-.336 1.392c0 .52.112.984.336 1.392.232.408.552.728.96.96.408.224.872.336 1.392.336.84 0 1.544-.332 2.112-.996l1.248 1.152c-.4.488-.896.86-1.488 1.116-.592.256-1.252.384-1.98.384zm12.285-1.704V33h-6.504v-8.4h6.348v1.56h-4.416v1.824h3.9v1.512h-3.9v1.944h4.572zm8.715-2.808c.48.152.856.408 1.128.768.272.352.408.788.408 1.308 0 .736-.288 1.304-.864 1.704-.568.392-1.4.588-2.496.588h-4.344v-8.4h4.104c1.024 0 1.808.196 2.352.588.552.392.828.924.828 1.596 0 .408-.1.772-.3 1.092-.192.32-.464.572-.816.756zm-4.236-2.568v1.98h1.932c.48 0 .844-.084 1.092-.252.248-.168.372-.416.372-.744s-.124-.572-.372-.732c-.248-.168-.612-.252-1.092-.252h-1.932zm2.268 5.472c.512 0 .896-.084 1.152-.252.264-.168.396-.428.396-.78 0-.696-.516-1.044-1.548-1.044h-2.268v2.076h2.268zm10.044 1.608c-.872 0-1.66-.188-2.364-.564a4.255 4.255 0 01-1.644-1.548c-.392-.664-.588-1.408-.588-2.232 0-.824.196-1.564.588-2.22.4-.664.948-1.184 1.644-1.56.704-.376 1.492-.564 2.364-.564.872 0 1.656.188 2.352.564a4.226 4.226 0 011.644 1.56c.4.656.6 1.396.6 2.22 0 .824-.2 1.568-.6 2.232a4.255 4.255 0 01-1.644 1.548c-.696.376-1.48.564-2.352.564zm0-1.656c.496 0 .944-.112 1.344-.336.4-.232.712-.552.936-.96.232-.408.348-.872.348-1.392 0-.52-.116-.984-.348-1.392a2.372 2.372 0 00-.936-.948 2.63 2.63 0 00-1.344-.348 2.63 2.63 0 00-1.344.348c-.4.224-.716.54-.948.948a2.844 2.844 0 00-.336 1.392c0 .52.112.984.336 1.392.232.408.548.728.948.96.4.224.848.336 1.344.336zm11.125 1.656c-.872 0-1.66-.188-2.364-.564a4.255 4.255 0 01-1.644-1.548c-.392-.664-.588-1.408-.588-2.232 0-.824.196-1.564.588-2.22.4-.664.948-1.184 1.644-1.56.704-.376 1.492-.564 2.364-.564.872 0 1.656.188 2.352.564a4.226 4.226 0 011.644 1.56c.4.656.6 1.396.6 2.22 0 .824-.2 1.568-.6 2.232a4.255 4.255 0 01-1.644 1.548c-.696.376-1.48.564-2.352.564zm0-1.656c.496 0 .944-.112 1.344-.336.4-.232.712-.552.936-.96.232-.408.348-.872.348-1.392 0-.52-.116-.984-.348-1.392a2.372 2.372 0 00-.936-.948 2.63 2.63 0 00-1.344-.348 2.63 2.63 0 00-1.344.348c-.4.224-.716.54-.948.948a2.844 2.844 0 00-.336 1.392c0 .52.112.984.336 1.392.232.408.548.728.948.96.4.224.848.336 1.344.336zm10.117-1.788l-1.128 1.176V33h-1.932v-8.4h1.932v3.924l3.72-3.924h2.16l-3.48 3.744L152.887 33h-2.268l-2.688-3.3z" fill="#24A3FF"/><defs><clipPath id="clip0_22724_6981"><path fill="#fff" d="M0 0h38v38H0z"/></clipPath></defs></svg>